**ABCDEFGHIJKLMNOPQRSTUVWXYZabcdefghijklmnopqrstuvwxyz**************************
**PARASOLID !"#$%&'()*+,-./:;<=>?@[\]^_`{|}~0123456789**************************
**PART1;
MC=unknown;
MC_MODEL=unknown;
MC_ID=unknown;
OS=unknown;
OS_RELEASE=unknown;
FRU=sdl_parasolid_customer_support;
APPL=parasolid_acceptance_tests;
SITE=unknown;
USER=unknown;
FORMAT=text;
GUISE=transmit;
KEY=/bigdata/aiskhak2/ML_training_database/CG_case/geom_nat.x_t;
FILE=/bigdata/aiskhak2/ML_training_database/CG_case/geom_nat.x_t;
DATE=unknown;
**PART2;
SCH=SCH_2800180_28002;
USFLD_SIZE=1;
**PART3;
**END_OF_HEADER*****************************************************************
T51 : TRANSMIT FILE created by modeller version 280018023 SCH_2800180_28002_1300
6200 1 12 30 CCCCCCCCCCCCCDI5 owner1040 0 CCCCCCCCCA13 boundary_mesh1006 0 A16 i
ndex_map_offset0 0 1 dA9 index_map82 0 A17 node_id_index_map82 0 A20 schema_embe
dding_map82 0 A5 child12 0 A14 lowest_node_id0 0 1 dZ1 196 2 3 0 0 0 0 1e3 1e-8
 0 0 0 1 0 1 1 4 5 6 7 8 9 10 0 0 0 0 0 0 0 0 81 255 2 2 190 11 1 12 0 0 0 0 13
 0 70 11 CI9 list_type0 0 1 uI10 notransmit0 0 1 lCCCDCCDI12 finger_index0 0 1 d
I12 finger_block1012 0 CZ3 0 4 T1 0 0 9 20 1 14 14 0 13 255 4 99 0 1 0 15 0 0 16
 0 0 50 255 5 94 0 15 17 0 0 +0 .15 0 1 0 -1224646799147352e-31 -122464679914735
2e-31 0 -1 0 30 255 6 98 0 9 18 0 0 +612323399573677e-32 .15 .05 0 -1 0 0 29 255
 7 75 0 19 20 0 0 0 0 0 19 8 CCCCCCCA5 owner12 0 Z8 33 0 1 16 0 21 V0 0 16 255 9
 82 0 ?22 0 23 6 0 0 1 0 18 255 10 30 0 24 0 25 26 ?1 0 17 255 24 0 27 28 29 10
 30 31 0 32 +0 18 25 27 0 29 10 33 34 ?1 0 29 26 32 0 10 34 35 0 .15 0 0 29 34 2
9 0 25 36 26 .05 .15 0 0 29 35 78 0 37 26 38 612323399573677e-32 0 .05 0 18 37 6
9 0 39 40 0 35 ?1 0 29 38 77 0 40 35 20 .05 0 .05 0 18 40 68 0 41 42 37 38 ?1 0
 29 20 76 0 42 38 7 .05 0 0 0 18 42 67 0 43 19 40 20 ?1 0 17 43 0 44 45 46 42 47
 48 0 49 +0 18 19 66 0 50 51 42 7 ?1 0 17 50 0 52 32 49 19 53 54 0 55 +0 18 51 2
1 0 56 33 19 57 ?1 0 17 56 0 58 22 59 51 60 61 0 28 -0 18 33 24 0 60 25 51 36 ?1
 0 29 57 23 0 51 0 36 612323399573677e-32 .15 .05 0 29 36 26 0 33 57 34 .05 .15
 .05 0 17 60 0 27 29 28 33 56 61 0 59 +0 15 255 27 4 0 28 62 0 0 17 29 0 27 24 6
0 25 63 64 0 45 +0 17 28 0 27 60 24 51 65 66 0 67 +0 16 61 9 0 ?60 64 66 68 0 0
 1 0 17 59 0 58 56 41 33 46 23 0 63 -0 15 58 87 0 41 69 0 0 17 41 0 58 59 22 40
 39 70 0 46 +0 17 46 0 44 43 63 40 59 23 0 47 +0 16 23 81 0 ?46 9 71 18 0 0 1 0
 17 63 0 44 46 45 33 29 64 0 0 -0 15 44 85 0 43 72 0 0 17 45 0 44 63 43 25 49 71
 0 30 -0 16 64 13 0 ?29 31 61 73 0 0 1 0 16 31 17 0 ?24 74 64 75 0 0 1 0 30 73 1
5 0 64 68 75 0 +.05 .15 0 0 0 -1 0 30 68 11 0 61 76 73 0 +612323399573677e-32 .1
5 .05 1 0 0 0 30 75 19 0 31 73 77 0 +0 .15 0 -1 0 0 0 30 77 74 0 78 75 79 0 +0 0
 0 1224646799147352e-31 0 1 0 16 78 62 0 ?80 70 0 77 0 0 1 0 30 79 73 0 70 77 81
 0 +612323399573677e-32 0 .05 1 0 0 0 16 70 58 0 ?41 48 78 79 0 0 1 0 30 81 72 0
 48 79 82 0 +.05 0 0 0 0 -1 0 16 48 54 0 ?43 54 70 81 0 0 1 0 30 82 71 0 54 81 8
3 0 +0 0 0 -1 0 0 0 16 54 50 0 ?50 66 48 82 0 0 1 0 30 83 95 0 74 82 84 0 +0 .15
 0 0 -1 0 0 16 74 79 0 ?55 71 31 83 0 0 1 0 30 84 96 0 71 83 18 0 +.05 .15 0 0 -
1 0 0 16 71 80 0 ?49 23 74 84 0 0 1 0 30 18 97 0 23 84 6 0 +.05 .15 .05 0 -1 0 0
 17 49 0 52 50 30 42 45 71 0 53 +0 15 52 83 0 50 85 0 0 17 30 0 52 49 32 25 24 3
1 0 0 -0 17 53 0 86 47 87 42 50 54 0 0 -0 15 86 49 0 87 88 0 0 17 47 0 86 39 53
 40 43 48 0 0 -0 17 87 0 86 53 39 19 80 78 0 0 -0 17 39 0 86 87 47 37 41 70 0 22
 -0 17 80 0 89 67 55 37 87 78 0 0 +0 15 89 89 0 80 15 0 0 17 67 0 89 65 80 51 22
 9 0 0 -0 17 55 0 89 80 65 19 32 74 0 87 +0 17 65 0 89 55 67 10 28 66 0 0 -0 17
 32 0 52 30 50 10 55 74 0 65 -0 16 66 5 0 ?28 61 54 76 0 0 1 0 30 76 7 0 66 0 68
 0 +0 .15 0 1224646799147352e-31 0 1 0 17 22 0 58 41 56 37 67 9 0 80 +0 14 255 1
5 90 90 ?69 0 89 4 5 -0 0 69 0 21 0 81 1 90 191 91 15 92 0 0 93 94 0 14 69 88 93
 ?72 15 58 4 17 -0 0 72 15 21 0 13 21 34 0 0 0 0 0 0 8 15 0 81 1 93 192 91 69 95
 0 90 96 97 0 14 72 86 96 ?85 69 44 4 98 -0 0 85 69 21 0 50 17 93 0 69 98 5 0 +6
12323399573677e-32 .15 .05 0 0 -1 -1 0 0 0 50 98 92 0 72 99 17 0 +.05 .15 0 -1 0
 0 0 0 1 0 50 99 91 0 85 100 98 0 +0 .15 0 0 0 1 1 0 0 0 14 85 84 101 ?62 72 52
 4 99 -0 0 62 72 21 0 50 100 70 0 88 102 99 0 +0 0 0 0 1 0 0 0 1 0 14 88 48 103
 ?0 62 86 4 100 -0 0 0 62 21 0 50 102 3 0 62 0 100 0 +0 .15 0 0 1 0 0 0 1 0 14 6
2 1 104 ?88 85 27 4 102 +0 0 88 85 21 0 81 1 104 196 91 62 105 0 103 0 106 0 80
 255 1 91 107 108 9000 1 1 1 1 1 1 1 1 0 FFFFTFTFFFFFFF1 0 81 1 105 175 109 62 0
 104 110 111 112 0 81 1 103 195 91 88 111 0 101 104 113 0 82 255 1 106 322240627
 0 81 1 111 176 109 88 0 103 105 0 114 0 81 1 101 194 91 85 110 0 96 103 115 0 8
2 1 113 327876723 0 81 1 110 174 109 85 0 101 116 105 117 0 81 1 96 193 91 72 11
6 0 93 101 118 0 82 1 115 328794227 0 81 1 116 173 109 72 0 96 95 110 119 0 82 1
 118 329056371 0 80 1 109 0 120 8001 0 0 0 0 3 5 0 0 0 FFFFTFTFFFFFFF2 0 81 1 95
 172 109 69 0 93 92 116 121 0 83 255 3 119 .792156862745098 .819607843137255 .93
3333333333333 0 81 1 92 171 109 15 0 90 0 95 122 0 83 3 121 .792156862745098 .81
9607843137255 .933333333333333 0 83 3 122 .792156862745098 .819607843137255 .933
333333333333 0 79 255 15 120 SDL/TYSA_COLOUR0 83 3 117 .792156862745098 .8196078
43137255 .933333333333333 0 83 3 114 .792156862745098 .819607843137255 .93333333
3333333 0 83 3 112 .792156862745098 .819607843137255 .933333333333333 0 79 14 10
8 SWEntUnchanged0 82 1 97 329318515 0 82 1 94 329580659 0 19 16 100 0 1 0 8 4 S0
 0 74 4 CI16 index_map_offset0 0 1 dCCZ20 14 9 0 0 123 124 104 125 126 127 12 11
1 2 0 0 0 0 0 0 0 0 0 0 0 0 81 2 123 124 128 1 0 124 0 0 0 129 0 81 2 124 128 10
7 1 123 125 0 0 0 130 0 81 1 125 135 131 1 124 126 0 0 132 0 81 2 126 136 133 1
 125 127 0 0 0 0 0 81 2 127 144 134 1 126 12 0 0 135 0 0 81 2 12 170 136 1 127 2
 0 0 0 137 0 80 2 136 133 138 9000 0 0 0 0 3 5 0 0 0 FFTFFFFFFFFFFF9 1 0 82 1 13
7 1 0 79 24 138 BODY_IN_LIGHTWEIGHT_PERM0 80 2 134 139 140 8004 0 0 0 0 3 5 0 0
 0 FFTFFFFFFFFFFF2 3 0 83 1 135 1 0 79 16 140 SDL/TYSA_DENSITY0 80 2 133 131 141
 9000 0 0 0 0 3 5 0 0 0 FFTFFFFFFFFFFF9 1 0 79 16 141 BODY_RECIPE_20010 80 1 131
 91 142 9000 1 1 1 1 1 1 1 1 0 FFTFFFFFFFFFFF1 0 82 1 132 70451 0 79 10 142 BODY
_MATCH0 80 2 107 128 143 9000 0 0 0 0 3 5 0 0 0 FFTFFFFFFFFFFF9 1 0 82 1 130 34
 0 79 30 143 LAST_BODY_MODIFYING_FEATURE_ID0 80 2 128 144 145 9000 0 0 0 0 3 5 0
 0 0 FFTFFFFFFFFFFF9 1 0 82 1 129 103 0 79 19 145 ENT_TIME_STAMP_20010 80 2 11 1
36 146 9000 0 0 0 0 3 5 0 0 0 FFTFFFFFFFFFFF9 1 0 82 1 13 101 0 79 12 146 ATOM_I
D_20010 1 0 
